<svg width="380" height="279" viewBox="0 0 380 279" fill="none" xmlns="http://www.w3.org/2000/svg">
<path d="M108.93 120.407C137.271 120.407 160.246 97.4319 160.246 69.091C160.246 40.7502 137.271 17.7754 108.93 17.7754C80.5891 17.7754 57.6143 40.7502 57.6143 69.091C57.6143 97.4319 80.5891 120.407 108.93 120.407Z" fill="#255D63"/>
<path d="M286.585 143.943C302.631 143.943 315.639 130.935 315.639 114.889C315.639 98.8436 302.631 85.8359 286.585 85.8359C270.539 85.8359 257.532 98.8436 257.532 114.889C257.532 130.935 270.539 143.943 286.585 143.943Z" fill="#B7662A"/>
<path d="M239.389 176.11C255.435 176.11 268.443 163.103 268.443 147.057C268.443 131.011 255.435 118.003 239.389 118.003C223.343 118.003 210.335 131.011 210.335 147.057C210.335 163.103 223.343 176.11 239.389 176.11Z" fill="#B7662A"/>
<path d="M228.454 71.3956C244.5 71.3956 257.507 58.3879 257.507 42.3421C257.507 26.2963 244.5 13.2886 228.454 13.2886C212.408 13.2886 199.4 26.2963 199.4 42.3421C199.4 58.3879 212.408 71.3956 228.454 71.3956Z" fill="#B7662A"/>
<path d="M147.177 70.7584C163.223 70.7584 176.231 57.7507 176.231 41.7049C176.231 25.6591 163.223 12.6514 147.177 12.6514C131.131 12.6514 118.124 25.6591 118.124 41.7049C118.124 57.7507 131.131 70.7584 147.177 70.7584Z" fill="#214F57"/>
<path d="M150.169 150.784C171.766 150.784 189.274 133.276 189.274 111.679C189.274 90.081 171.766 72.5728 150.169 72.5728C128.571 72.5728 111.063 90.081 111.063 111.679C111.063 133.276 128.571 150.784 150.169 150.784Z" fill="#255D63"/>
<path d="M117.021 183.074C138.618 183.074 156.126 165.566 156.126 143.968C156.126 122.371 138.618 104.862 117.021 104.862C95.4231 104.862 77.9148 122.371 77.9148 143.968C77.9148 165.566 95.4231 183.074 117.021 183.074Z" fill="#255D63"/>
<path d="M189.275 173.61C211.427 173.61 229.386 155.651 229.386 133.499C229.386 111.346 211.427 93.3877 189.275 93.3877C167.122 93.3877 149.164 111.346 149.164 133.499C149.164 155.651 167.122 173.61 189.275 173.61Z" fill="#214F57"/>
<path d="M189.274 69.091C208.353 69.091 223.819 53.6245 223.819 34.5455C223.819 15.4665 208.353 0 189.274 0C170.195 0 154.729 15.4665 154.729 34.5455C154.729 53.6245 170.195 69.091 189.274 69.091Z" fill="#255D63"/>
<path d="M89.3156 162.994C117.656 162.994 140.631 140.019 140.631 111.678C140.631 83.3376 117.656 60.3628 89.3156 60.3628C60.9748 60.3628 38 83.3376 38 111.678C38 140.019 60.9748 162.994 89.3156 162.994Z" fill="#214F57"/>
<path d="M309.951 118.788H291.513C288.792 118.788 286.585 116.581 286.585 113.86V54.0855C286.585 41.0666 276.754 29.6413 263.759 28.8568C249.637 27.9986 237.942 39.2032 237.942 53.1293V142.962C237.942 156.472 248.902 167.407 262.386 167.407H310.907C324.833 167.407 336.038 155.687 335.179 141.589C334.395 128.595 322.97 118.763 309.951 118.763V118.788Z" fill="#E09351"/>
<path d="M199.67 28.5384C180.056 29.47 164.953 46.3627 164.953 66.026V64.9472C164.953 44.2052 147.643 27.5086 126.705 28.5138C107.091 29.4455 91.988 46.3382 91.988 66.0015V143.159C91.988 156.595 102.874 167.48 116.31 167.48C129.745 167.48 140.631 156.595 140.631 143.159V125.285C140.631 112.34 150.414 101.013 163.335 100.179C177.506 99.272 189.274 110.477 189.274 124.452V143.159C189.274 157.134 201.043 168.339 215.214 167.431C228.135 166.598 237.918 155.271 237.918 142.325V65.0208C237.918 44.2787 220.608 27.5822 199.67 28.5874V28.5384Z" fill="#F7EEE3"/>
<path d="M81.4465 203.949V278.056H66.471V229.866L46.4618 278.056H35.1106L14.9755 229.866V278.056H0V203.949H17.0142L40.7736 259.055L64.533 203.949H81.4465Z" fill="#214F57"/>
<path d="M111.146 266.271H135.761V278.057H96.1704V203.949H111.146V266.271Z" fill="#214F57"/>
<path d="M142.531 221.302C145.853 215.534 150.384 211.04 156.122 207.819C161.861 204.598 168.304 203 175.427 203C183.783 203 191.082 205.122 197.374 209.367C203.641 213.612 208.046 219.479 210.537 226.995H193.297C191.585 223.449 189.169 220.803 186.073 219.03C182.977 217.257 179.378 216.383 175.326 216.383C170.972 216.383 167.096 217.382 163.723 219.404C160.325 221.427 157.683 224.273 155.795 227.944C153.907 231.614 152.951 235.934 152.951 240.903C152.951 245.871 153.907 250.091 155.795 253.811C157.683 257.532 160.325 260.403 163.723 262.401C167.121 264.423 170.972 265.422 175.326 265.422C179.403 265.422 182.977 264.523 186.073 262.725C189.169 260.928 191.585 258.256 193.297 254.71H210.537C208.046 262.276 203.666 268.169 197.424 272.388C191.183 276.608 183.858 278.705 175.427 278.705C168.304 278.705 161.861 277.107 156.122 273.886C150.384 270.665 145.853 266.196 142.531 260.453C139.209 254.71 137.548 248.218 137.548 240.928C137.548 233.637 139.209 227.12 142.531 221.352V221.302Z" fill="#214F57"/>
<path d="M221.209 232.612C223.6 228.018 226.847 224.473 230.95 222.001C235.052 219.529 239.633 218.28 244.692 218.28C249.122 218.28 252.998 219.154 256.32 220.927C259.642 222.7 262.285 224.922 264.298 227.619V219.229H279.4V278.056H264.298V269.466C262.386 272.238 259.718 274.51 256.32 276.308C252.922 278.105 249.021 279.004 244.591 279.004C239.608 279.004 235.052 277.731 230.95 275.184C226.847 272.637 223.6 269.042 221.209 264.398C218.818 259.753 217.635 254.435 217.635 248.418C217.635 242.4 218.818 237.207 221.209 232.612ZM262.134 239.354C260.699 236.757 258.786 234.785 256.345 233.411C253.929 232.038 251.311 231.339 248.543 231.339C245.774 231.339 243.207 232.013 240.841 233.361C238.475 234.71 236.587 236.682 235.102 239.254C233.643 241.851 232.913 244.897 232.913 248.443C232.913 251.988 233.643 255.084 235.102 257.731C236.562 260.378 238.5 262.425 240.891 263.848C243.282 265.272 245.824 265.971 248.543 265.971C251.261 265.971 253.929 265.272 256.345 263.898C258.761 262.525 260.699 260.527 262.134 257.956C263.568 255.384 264.273 252.288 264.273 248.667C264.273 245.047 263.568 241.976 262.134 239.379V239.354Z" fill="#214F57"/>
<path d="M302.404 276.408C298.553 274.685 295.508 272.313 293.242 269.341C291.002 266.37 289.769 263.074 289.542 259.454H304.644C304.921 261.726 306.053 263.599 308.016 265.072C309.98 266.57 312.421 267.294 315.341 267.294C318.26 267.294 320.425 266.72 322.035 265.596C323.646 264.473 324.452 263.024 324.452 261.252C324.452 259.329 323.47 257.906 321.507 256.957C319.544 256.008 316.423 254.959 312.144 253.836C307.714 252.762 304.09 251.689 301.271 250.54C298.452 249.416 296.036 247.669 293.997 245.346C291.959 243.024 290.952 239.853 290.952 235.908C290.952 232.662 291.908 229.691 293.796 226.994C295.684 224.298 298.402 222.175 301.926 220.627C305.449 219.079 309.602 218.28 314.384 218.28C321.457 218.28 327.094 220.028 331.298 223.524C335.501 227.019 337.816 231.738 338.244 237.706H323.898C323.697 235.359 322.715 233.511 320.953 232.138C319.191 230.765 316.876 230.066 313.931 230.066C311.213 230.066 309.124 230.565 307.664 231.539C306.204 232.537 305.474 233.911 305.474 235.684C305.474 237.656 306.481 239.179 308.469 240.203C310.458 241.227 313.579 242.275 317.782 243.324C322.061 244.398 325.584 245.496 328.378 246.62C331.172 247.743 333.563 249.516 335.602 251.863C337.64 254.235 338.697 257.381 338.748 261.252C338.748 264.647 337.791 267.694 335.904 270.39C334.016 273.087 331.298 275.184 327.774 276.707C324.25 278.23 320.123 278.979 315.416 278.979C310.71 278.979 306.204 278.105 302.353 276.383L302.404 276.408Z" fill="#214F57"/>
<path d="M366.761 231.464V259.929C366.761 261.901 367.239 263.349 368.196 264.223C369.152 265.097 370.788 265.547 373.053 265.547H380V278.081H370.587C357.952 278.081 351.635 271.989 351.635 259.829V231.489H344.562V219.28H351.635V204.698H366.736V219.255H380V231.464H366.736H366.761Z" fill="#214F57"/>
</svg>
