<svg width="704" height="184" viewBox="0 0 704 184" fill="none" xmlns="http://www.w3.org/2000/svg">
<path d="M70.9299 120.407C99.2707 120.407 122.246 97.4319 122.246 69.091C122.246 40.7502 99.2707 17.7754 70.9299 17.7754C42.5891 17.7754 19.6143 40.7502 19.6143 69.091C19.6143 97.4319 42.5891 120.407 70.9299 120.407Z" fill="#255D63"/>
<path d="M248.585 143.943C264.631 143.943 277.639 130.935 277.639 114.889C277.639 98.8436 264.631 85.8359 248.585 85.8359C232.539 85.8359 219.532 98.8436 219.532 114.889C219.532 130.935 232.539 143.943 248.585 143.943Z" fill="#B7662A"/>
<path d="M201.389 176.11C217.435 176.11 230.443 163.103 230.443 147.057C230.443 131.011 217.435 118.003 201.389 118.003C185.343 118.003 172.335 131.011 172.335 147.057C172.335 163.103 185.343 176.11 201.389 176.11Z" fill="#B7662A"/>
<path d="M190.454 71.3956C206.5 71.3956 219.507 58.3879 219.507 42.3421C219.507 26.2963 206.5 13.2886 190.454 13.2886C174.408 13.2886 161.4 26.2963 161.4 42.3421C161.4 58.3879 174.408 71.3956 190.454 71.3956Z" fill="#B7662A"/>
<path d="M109.177 70.7584C125.223 70.7584 138.231 57.7507 138.231 41.7049C138.231 25.6591 125.223 12.6514 109.177 12.6514C93.1312 12.6514 80.1235 25.6591 80.1235 41.7049C80.1235 57.7507 93.1312 70.7584 109.177 70.7584Z" fill="#214F57"/>
<path d="M112.169 150.784C133.766 150.784 151.274 133.276 151.274 111.679C151.274 90.081 133.766 72.5728 112.169 72.5728C90.571 72.5728 73.0627 90.081 73.0627 111.679C73.0627 133.276 90.571 150.784 112.169 150.784Z" fill="#255D63"/>
<path d="M79.0206 183.074C100.618 183.074 118.126 165.566 118.126 143.968C118.126 122.371 100.618 104.862 79.0206 104.862C57.4231 104.862 39.9148 122.371 39.9148 143.968C39.9148 165.566 57.4231 183.074 79.0206 183.074Z" fill="#255D63"/>
<path d="M151.275 173.61C173.427 173.61 191.386 155.651 191.386 133.499C191.386 111.346 173.427 93.3877 151.275 93.3877C129.122 93.3877 111.164 111.346 111.164 133.499C111.164 155.651 129.122 173.61 151.275 173.61Z" fill="#214F57"/>
<path d="M151.274 69.091C170.353 69.091 185.819 53.6245 185.819 34.5455C185.819 15.4665 170.353 0 151.274 0C132.195 0 116.729 15.4665 116.729 34.5455C116.729 53.6245 132.195 69.091 151.274 69.091Z" fill="#255D63"/>
<path d="M51.3156 162.994C79.6565 162.994 102.631 140.019 102.631 111.678C102.631 83.3376 79.6565 60.3628 51.3156 60.3628C22.9748 60.3628 0 83.3376 0 111.678C0 140.019 22.9748 162.994 51.3156 162.994Z" fill="#214F57"/>
<path d="M271.951 118.788H253.513C250.792 118.788 248.585 116.581 248.585 113.86V54.0855C248.585 41.0666 238.754 29.6413 225.759 28.8568C211.637 27.9986 199.942 39.2032 199.942 53.1293V142.962C199.942 156.472 210.902 167.407 224.386 167.407H272.907C286.833 167.407 298.038 155.687 297.179 141.589C296.395 128.595 284.97 118.763 271.951 118.763V118.788Z" fill="#E09351"/>
<path d="M161.67 28.5384C142.056 29.47 126.953 46.3627 126.953 66.026V64.9472C126.953 44.2052 109.643 27.5086 88.7052 28.5138C69.091 29.4455 53.988 46.3382 53.988 66.0015V143.159C53.988 156.595 64.8739 167.48 78.3096 167.48C91.7453 167.48 102.631 156.595 102.631 143.159V125.285C102.631 112.34 112.414 101.013 125.335 100.179C139.506 99.272 151.274 110.477 151.274 124.452V143.159C151.274 157.134 163.043 168.339 177.214 167.431C190.135 166.598 199.918 155.271 199.918 142.325V65.0208C199.918 44.2787 182.608 27.5822 161.67 28.5874V28.5384Z" fill="#F7EEE3"/>
<path d="M405.381 84.0503V165.958H390.405V112.696L370.396 165.958H359.045L338.91 112.696V165.958H323.934V84.0503H340.948L364.708 144.957L388.467 84.0503H405.381Z" fill="#214F57"/>
<path d="M435.08 152.933H459.695V165.958H420.104V84.0508H435.08V152.933Z" fill="#214F57"/>
<path d="M466.465 103.229C469.788 96.8537 474.318 91.8862 480.057 88.3262C485.795 84.7662 492.238 83 499.361 83C507.717 83 515.016 85.3457 521.308 90.0372C527.575 94.7287 531.98 101.214 534.472 109.521H517.231C515.52 105.602 513.103 102.677 510.008 100.717C506.912 98.7578 503.313 97.7919 499.26 97.7919C494.906 97.7919 491.03 98.8958 487.658 101.131C484.26 103.367 481.617 106.513 479.729 110.569C477.842 114.626 476.885 119.4 476.885 124.892C476.885 130.384 477.842 135.048 479.729 139.16C481.617 143.272 484.26 146.445 487.658 148.653C491.055 150.888 494.906 151.992 499.26 151.992C503.338 151.992 506.912 150.999 510.008 149.012C513.103 147.025 515.52 144.072 517.231 140.153H534.472C531.98 148.515 527.601 155.028 521.359 159.692C515.117 164.356 507.793 166.674 499.361 166.674C492.238 166.674 485.795 164.908 480.057 161.348C474.318 157.788 469.788 152.848 466.465 146.501C463.143 140.153 461.482 132.978 461.482 124.92C461.482 116.861 463.143 109.659 466.465 103.284V103.229Z" fill="#214F57"/>
<path d="M545.143 115.73C547.534 110.652 550.781 106.734 554.884 104.002C558.986 101.269 563.567 99.8896 568.626 99.8896C573.056 99.8896 576.932 100.856 580.254 102.815C583.576 104.774 586.219 107.23 588.232 110.211V100.938H603.334V165.957H588.232V156.463C586.32 159.527 583.652 162.038 580.254 164.025C576.856 166.012 572.955 167.005 568.525 167.005C563.542 167.005 558.986 165.598 554.884 162.783C550.781 159.968 547.534 155.994 545.143 150.861C542.752 145.728 541.569 139.85 541.569 133.199C541.569 126.548 542.752 120.808 545.143 115.73ZM586.068 123.181C584.633 120.311 582.72 118.131 580.279 116.613C577.863 115.096 575.245 114.323 572.477 114.323C569.708 114.323 567.141 115.068 564.775 116.558C562.409 118.048 560.522 120.229 559.037 123.071C557.577 125.941 556.847 129.308 556.847 133.227C556.847 137.145 557.577 140.568 559.037 143.493C560.496 146.418 562.434 148.681 564.825 150.254C567.216 151.827 569.758 152.6 572.477 152.6C575.195 152.6 577.863 151.827 580.279 150.309C582.695 148.791 584.633 146.584 586.068 143.741C587.503 140.899 588.207 137.477 588.207 133.475C588.207 129.474 587.503 126.079 586.068 123.209V123.181Z" fill="#214F57"/>
<path d="M626.338 164.135C622.487 162.231 619.442 159.609 617.176 156.325C614.936 153.041 613.703 149.399 613.477 145.397H628.578C628.855 147.908 629.987 149.978 631.951 151.606C633.914 153.262 636.355 154.062 639.275 154.062C642.194 154.062 644.359 153.428 645.97 152.186C647.58 150.944 648.386 149.343 648.386 147.384C648.386 145.259 647.404 143.686 645.441 142.637C643.478 141.589 640.357 140.43 636.078 139.188C631.648 138.001 628.024 136.814 625.205 135.545C622.386 134.303 619.97 132.371 617.931 129.805C615.893 127.238 614.886 123.733 614.886 119.373C614.886 115.785 615.842 112.501 617.73 109.521C619.618 106.541 622.336 104.195 625.86 102.484C629.383 100.773 633.536 99.8896 638.318 99.8896C645.391 99.8896 651.029 101.821 655.232 105.685C659.435 109.549 661.75 114.764 662.178 121.36H647.832C647.631 118.766 646.649 116.724 644.887 115.206C643.125 113.688 640.81 112.915 637.865 112.915C635.147 112.915 633.058 113.467 631.598 114.544C630.138 115.647 629.408 117.165 629.408 119.125C629.408 121.305 630.415 122.988 632.404 124.12C634.392 125.251 637.513 126.41 641.716 127.569C645.995 128.756 649.518 129.97 652.312 131.212C655.106 132.454 657.497 134.413 659.536 137.008C661.574 139.629 662.631 143.106 662.682 147.384C662.682 151.137 661.725 154.504 659.838 157.484C657.95 160.465 655.232 162.783 651.708 164.466C648.184 166.15 644.057 166.978 639.35 166.978C634.644 166.978 630.138 166.012 626.288 164.108L626.338 164.135Z" fill="#214F57"/>
<path d="M690.695 114.461V145.922C690.695 148.102 691.173 149.703 692.13 150.669C693.086 151.634 694.722 152.131 696.987 152.131H703.934V165.985H694.521C681.886 165.985 675.569 159.251 675.569 145.811V114.489H668.496V100.994H675.569V84.8774H690.67V100.966H703.934V114.461H690.67H690.695Z" fill="#214F57"/>
</svg>
